<svg width="17" height="18" viewBox="0 0 17 18" fill="none" xmlns="http://www.w3.org/2000/svg">
<path d="M8.5 2.09375C6.6555 2.09375 4.92044 2.812 3.61675 4.11675C2.31306 5.4215 1.59375 7.1555 1.59375 9C1.59375 10.8445 2.312 12.5796 3.61675 13.8832C4.9215 15.1869 6.6555 15.9062 8.5 15.9062C10.3445 15.9062 12.0796 15.188 13.3832 13.8832C14.6869 12.5785 15.4062 10.8445 15.4062 9C15.4062 7.1555 14.688 5.42044 13.3832 4.11675C12.0785 2.81306 10.3445 2.09375 8.5 2.09375ZM8.5 0.5C10.7543 0.5 12.9163 1.39553 14.5104 2.98959C16.1045 4.58365 17 6.74566 17 9C17 11.2543 16.1045 13.4163 14.5104 15.0104C12.9163 16.6045 10.7543 17.5 8.5 17.5C6.24566 17.5 4.08365 16.6045 2.48959 15.0104C0.895533 13.4163 0 11.2543 0 9C0 6.74566 0.895533 4.58365 2.48959 2.98959C4.08365 1.39553 6.24566 0.5 8.5 0.5ZM7.4375 12.1875H9.5625V14.3125H7.4375V12.1875ZM7.4375 3.6875H9.5625V10.0625H7.4375V3.6875Z" fill="#B1B1B1"/>
</svg>
