<svg width="31" height="32" viewBox="0 0 31 32" fill="none" xmlns="http://www.w3.org/2000/svg">
<path d="M30.6985 12.9643H29.45V12.9H15.5V19.1H24.2598C22.9818 22.7092 19.5478 25.3 15.5 25.3C10.3641 25.3 6.2 21.1359 6.2 16C6.2 10.8641 10.3641 6.7 15.5 6.7C17.8707 6.7 20.0275 7.59435 21.6698 9.05522L26.0539 4.67105C23.2856 2.09107 19.5827 0.5 15.5 0.5C6.94012 0.5 0 7.44012 0 16C0 24.5599 6.94012 31.5 15.5 31.5C24.0599 31.5 31 24.5599 31 16C31 14.9607 30.893 13.9462 30.6985 12.9643Z" fill="#FFC107"/>
<path d="M1.78906 8.78553L6.88159 12.5203C8.25954 9.1087 11.5967 6.7 15.5019 6.7C17.8726 6.7 20.0295 7.59435 21.6717 9.05523L26.0559 4.67105C23.2876 2.09108 19.5846 0.5 15.5019 0.5C9.54836 0.5 4.38531 3.86118 1.78906 8.78553Z" fill="#FF3D00"/>
<path d="M15.502 31.5002C19.5057 31.5002 23.1435 29.9681 25.894 27.4764L21.0967 23.417C19.4882 24.6402 17.5228 25.3018 15.502 25.3002C11.4705 25.3002 8.04728 22.7296 6.75768 19.1421L1.70312 23.0365C4.26838 28.0561 9.47793 31.5002 15.502 31.5002Z" fill="#4CAF50"/>
<path d="M30.6985 12.9642H29.45V12.8999H15.5V19.0999H24.2598C23.6485 20.8176 22.5474 22.3186 21.0924 23.4174L21.0947 23.4159L25.892 27.4753C25.5525 27.7838 31 23.7499 31 15.9999C31 14.9606 30.893 13.9462 30.6985 12.9642Z" fill="#1976D2"/>
</svg>
