<svg width="102" height="102" viewBox="0 0 102 102" fill="none" xmlns="http://www.w3.org/2000/svg">
<ellipse cx="51" cy="52.5938" rx="23.9062" ry="25.5" fill="#F7A400"/>
<path fill-rule="evenodd" clip-rule="evenodd" d="M8.49902 51C8.49902 27.5279 27.5269 8.50003 50.9991 8.50003C62.2707 8.50003 73.0808 12.9777 81.0511 20.948C89.0213 28.9183 93.499 39.7284 93.499 51C93.499 74.4721 74.4712 93.5001 50.9991 93.5001C27.5269 93.5001 8.49902 74.4721 8.49902 51ZM43.2217 69.1901L67.9991 53.7201C68.9264 53.1262 69.4872 52.1011 69.4872 51C69.4872 49.8991 68.9264 48.8738 67.9991 48.2801L43.1366 32.8101C42.1574 32.1927 40.9203 32.1547 39.9051 32.7108C38.8899 33.267 38.2559 34.3299 38.2492 35.4876V66.5126C38.2355 67.6984 38.8811 68.7938 39.9252 69.3559C40.9693 69.9182 42.2392 69.8542 43.2217 69.1901Z" fill="white"/>
</svg>
