<svg width="19" height="18" viewBox="0 0 19 18" fill="none" xmlns="http://www.w3.org/2000/svg">
<path d="M9.49979 15.0797L4.89489 17.8315C4.69146 17.9599 4.47879 18.0149 4.25687 17.9966C4.03494 17.9782 3.84076 17.9048 3.67432 17.7764C3.50788 17.648 3.37842 17.4877 3.28595 17.2954C3.19349 17.1024 3.17499 16.8867 3.23047 16.6482L4.45105 11.4474L0.373218 7.95261C0.188283 7.7875 0.0728828 7.59928 0.0270188 7.38795C-0.019585 7.17734 -0.00589984 6.97115 0.0680744 6.76935C0.142049 6.56755 0.25301 6.40245 0.400958 6.27403C0.548907 6.14561 0.752336 6.06306 1.01125 6.02637L6.39287 5.55857L8.4734 0.660425C8.56587 0.440283 8.70938 0.275177 8.90393 0.165106C9.09774 0.0550355 9.29636 0 9.49979 0C9.70322 0 9.90221 0.0550355 10.0968 0.165106C10.2906 0.275177 10.4337 0.440283 10.5262 0.660425L12.6067 5.55857L17.9883 6.02637C18.2472 6.06306 18.4507 6.14561 18.5986 6.27403C18.7466 6.40245 18.8575 6.56755 18.9315 6.76935C19.0055 6.97115 19.0195 7.17734 18.9737 7.38795C18.9271 7.59928 18.8113 7.7875 18.6264 7.95261L14.5485 11.4474L15.7691 16.6482C15.8246 16.8867 15.8061 17.1024 15.7136 17.2954C15.6212 17.4877 15.4917 17.648 15.3253 17.7764C15.1588 17.9048 14.9646 17.9782 14.7427 17.9966C14.5208 18.0149 14.3081 17.9599 14.1047 17.8315L9.49979 15.0797Z" fill="#FFB930"/>
</svg>
