<svg width="752" height="650" viewBox="0 0 752 650" fill="none" xmlns="http://www.w3.org/2000/svg">
<path opacity="0.6" fill-rule="evenodd" clip-rule="evenodd" d="M-44.8087 1.13178C-72.2443 85.9349 -61.0398 171.406 62.2891 210.822C164.451 243.474 251.472 239.454 325.055 236.028C459.738 229.793 549.55 225.612 605.014 450.86C626.687 538.855 658.848 593.326 695.152 625.072C706.018 634.586 717.273 642.055 728.725 647.777L728.349 649.758C716.66 643.969 705.181 636.368 694.084 626.654C657.535 594.683 625.164 539.904 603.399 451.491C548.267 227.621 458.961 231.765 325.028 237.986C251.33 241.412 164.153 245.447 61.7586 212.706C-63.0694 172.805 -74.3468 86.4057 -46.5852 0.794416L-44.8087 1.13178ZM-42.9397 1.48672C-66.0845 82.7769 -50.914 162.911 67.3521 200.718C169.514 233.371 256.535 229.351 330.118 225.924C464.801 219.69 554.613 215.508 610.077 440.757C631.75 528.751 663.911 583.223 700.215 614.969C710.178 623.687 720.468 630.683 730.925 636.193L730.549 638.174C719.859 632.575 709.345 625.447 699.152 616.529C662.598 584.58 630.231 529.779 608.466 441.366C553.334 217.496 464.028 221.64 330.096 227.861C256.397 231.288 169.22 235.323 66.8257 202.582C-52.9251 164.314 -68.15 83.2547 -44.7162 1.14935L-42.9397 1.48672ZM-40.682 1.91546C-59.522 79.5169 -40.7511 154.423 72.3966 190.612C174.559 223.264 261.584 219.222 335.163 215.817C469.845 209.583 559.657 205.401 615.121 430.65C636.794 518.645 668.955 573.116 705.259 604.862C714.319 612.784 723.648 619.285 733.137 624.545L732.757 626.547C723.036 621.199 713.486 614.544 704.211 606.447C667.661 574.477 635.29 519.697 613.525 431.284C558.393 207.415 469.087 211.558 335.154 217.779C261.442 221.181 174.265 225.216 71.8702 192.475C-42.7293 155.854 -61.5915 80.0162 -42.44 1.58161L-40.682 1.91546ZM-37.9618 2.43205C-52.5606 76.1765 -30.5183 145.971 77.4636 180.487C179.626 213.139 266.647 209.119 340.23 205.692C474.912 199.458 564.724 195.277 620.188 420.525C641.861 508.52 674.022 562.991 710.326 594.737C718.483 601.863 726.856 607.848 735.365 612.81L734.985 614.812C726.243 609.761 717.65 603.623 709.263 596.297C672.71 564.348 640.343 509.548 618.577 421.134C563.446 197.265 474.139 201.408 340.211 207.607C266.513 211.034 179.336 215.069 76.9414 182.328C-32.4965 147.402 -54.6487 76.6723 -39.7568 2.09117L-37.9618 2.43205ZM-34.7604 3.04002C-45.1451 72.7662 -20.2115 137.532 82.5081 170.38C184.652 203.029 271.695 198.991 345.274 195.586C479.957 189.351 569.769 185.17 625.233 410.418C646.906 498.413 679.067 552.884 715.371 584.63C722.62 590.981 730.063 596.41 737.602 601.032L737.218 603.056C729.45 598.324 721.787 592.742 714.322 586.216C677.769 554.266 645.402 499.466 623.636 411.052C568.505 187.183 479.198 191.326 345.27 197.526C271.572 200.953 184.395 204.988 82.0003 172.246C-22.1897 138.964 -47.2743 73.2765 -36.5924 2.69211L-34.7604 3.04002ZM-31.0408 3.74638C-37.2979 69.3041 -9.83478 129.13 87.5711 160.276C189.733 192.929 276.758 188.887 350.337 185.482C485.02 179.248 574.832 175.066 630.296 400.315C651.969 488.309 684.13 542.781 720.434 574.527C726.798 580.085 733.274 584.952 739.855 589.168L739.471 591.192C732.662 586.865 725.947 581.842 719.371 576.087C682.821 544.117 650.45 489.337 628.685 400.924C573.553 177.054 484.247 181.198 350.315 187.419C276.616 190.846 189.439 194.881 87.0447 162.14C-11.7944 130.565 -39.4271 69.8143 -32.8729 3.39847L-31.0408 3.74638ZM-26.7106 4.56871C-28.9595 65.779 0.667408 120.773 92.6156 150.17C194.778 182.822 281.799 178.802 355.382 175.375C490.064 169.141 579.876 164.96 635.34 390.208C657.013 478.203 689.174 532.674 725.478 564.42C730.939 569.182 736.494 573.45 742.102 577.236L741.713 579.282C735.859 575.381 730.084 570.961 724.411 566.002C687.858 534.053 655.491 479.252 633.725 390.839C578.594 166.969 489.287 171.113 355.355 177.333C281.657 180.76 194.48 184.795 92.0851 152.054C-1.28816 122.187 -31.1113 66.3073 -28.5797 4.21377L-26.7106 4.56871ZM-21.6957 5.52107C-20.0639 62.2482 11.2991 112.441 97.6827 140.045C199.826 172.694 286.87 168.655 360.449 165.251C495.131 159.016 584.943 154.835 640.407 380.083C662.08 468.078 694.241 522.549 730.545 554.295C735.099 558.283 739.722 561.905 744.406 565.204L744.014 567.271C739.105 563.84 734.262 560.065 729.478 555.877C692.925 523.928 660.558 469.127 638.792 380.714C583.661 156.844 494.354 160.988 360.426 167.187C286.728 170.614 199.551 174.649 97.1563 141.908C9.34356 113.855 -22.2527 62.7695 -23.6388 5.15208L-21.6957 5.52107ZM-15.9221 6.61752C-10.6113 58.7117 22.0933 104.163 102.727 129.938C204.889 162.59 291.914 158.549 365.493 155.144C500.176 148.909 589.988 144.728 645.452 369.977C667.125 457.971 699.286 512.443 735.59 544.188C739.259 547.383 742.95 550.36 746.686 553.099L746.293 555.166C742.337 552.273 738.407 549.14 734.527 545.749C697.978 513.778 665.606 458.999 643.841 370.585C588.709 146.716 499.403 150.859 365.471 157.08C291.772 160.507 204.595 164.542 102.201 131.801C20.1377 105.576 -12.8412 59.2475 -17.9207 6.23798L-15.9221 6.61752ZM-9.24176 7.88616C-0.486452 55.169 33.0685 95.9404 107.79 119.835C209.934 152.483 296.973 148.467 370.556 145.04C505.239 138.806 595.051 134.624 650.515 359.873C672.188 447.868 704.349 502.339 740.653 534.085C743.414 536.505 746.204 538.775 749.014 540.937L748.618 543.026C745.587 540.71 742.581 538.266 739.586 535.667C703.032 503.718 670.665 448.917 648.9 360.503C593.768 136.634 504.462 140.778 370.529 146.998C296.831 150.425 209.654 154.46 107.26 121.719C31.1088 97.3752 -2.77596 55.7157 -11.3143 7.49256L-9.24176 7.88616ZM-1.48809 9.35863C10.4135 51.6842 44.313 87.8141 112.835 109.728C214.997 142.38 302.022 138.338 375.601 134.933C510.283 128.699 600.095 124.518 655.559 349.766C677.232 437.761 709.393 492.232 745.697 523.978C747.574 525.606 749.44 527.187 751.323 528.682L750.922 530.793C748.805 529.119 746.723 527.363 744.634 525.538C708.081 493.589 675.714 438.789 653.948 350.375C598.817 126.506 509.51 130.649 375.582 136.848C301.88 140.297 214.721 144.335 112.308 111.591C42.3204 89.2203 8.03144 52.2134 -3.69021 8.94043L-1.48809 9.35863Z" fill="#E7E1D3"/>
</svg>
