<svg width="168" height="126" viewBox="0 0 168 126" fill="none" xmlns="http://www.w3.org/2000/svg">
<path d="M150.255 6.53482C149.204 8.80506 147.925 10.9854 146.555 13.1046C145.251 15.1417 143.86 17.1262 142.503 19.0948C136.633 27.5993 129.858 35.9372 121.107 41.6398C119.683 36.8428 116.049 32.499 112.015 29.9771C109.015 28.099 105.616 27.3803 102.223 28.6242C98.8467 29.8602 95.7995 32.7529 95.0777 36.3695C94.2139 40.7456 97.1989 44.5648 101.019 46.3179C105.391 48.3203 110.372 47.6382 114.733 45.9627C116.75 45.1857 118.689 44.1969 120.536 43.0547C120.974 45.012 120.991 47.042 120.421 49.0775C120.365 49.2899 120.296 49.4978 120.237 49.7017C117.959 56.7661 110.719 61.4519 104.387 64.5347C87.9272 72.5248 69.1714 76.198 53.3178 85.374C52.9768 85.5747 52.6444 85.7714 52.3035 85.972C49.7244 87.5184 47.2251 89.2137 44.8297 91.1088C44.3239 91.5105 43.8137 91.9248 43.3159 92.3436C43.2429 92.4087 43.1613 92.4779 43.0883 92.5431C37.2593 97.5009 32.2713 103.483 28.5935 110.188C27.7822 111.663 27.0372 113.17 26.3625 114.716C25.2812 117.187 24.3955 119.722 23.7012 122.312L24.3002 123.594C24.6035 122.294 24.9526 121.003 25.3856 119.714C26.5209 116.318 27.9882 113.057 29.7365 109.954C33.0038 104.165 37.2756 98.9313 42.2142 94.4825C48.1201 89.1576 54.9417 85.1946 62.1096 81.9284C62.2625 81.857 62.4069 81.7895 62.5638 81.7266C65.591 80.3639 68.6862 79.1247 71.8047 77.9574C83.1559 73.6988 94.9198 70.3233 105.775 64.8481C112.242 61.5886 119.51 56.4548 121.354 49.0141C121.387 48.885 121.411 48.7598 121.444 48.6307C121.888 46.6128 121.809 44.5602 121.342 42.5644C123.506 41.1706 125.545 39.5764 127.477 37.9081C131.656 34.2905 135.369 30.1658 138.737 25.7887C141.414 22.3244 143.943 18.7219 146.332 15.0403C147.036 13.956 147.732 12.8548 148.408 11.753C150.623 8.14221 152.64 4.22015 153.215 0L152.229 0.460423C151.871 2.55185 151.154 4.60444 150.255 6.53482ZM106.534 46.6689C102.074 46.5805 96.928 44.0293 95.9638 39.3073C95.1664 35.4074 97.8548 31.8133 101.174 30.0558C104.509 28.2904 108.049 28.6229 111.236 30.5269C114.453 32.4485 117.087 35.4282 118.874 38.7001C119.478 39.8147 119.975 40.9684 120.317 42.1432C116.205 44.7058 111.452 46.7609 106.534 46.6689Z" fill="#F7A400"/>
<path d="M154.255 8.53482C153.204 10.8051 151.925 12.9854 150.555 15.1046C149.251 17.1417 147.86 19.1262 146.503 21.0948C140.633 29.5993 133.858 37.9372 125.107 43.6398C123.683 38.8428 120.049 34.499 116.015 31.9771C113.015 30.099 109.616 29.3803 106.223 30.6242C102.847 31.8602 99.7995 34.7529 99.0777 38.3695C98.2139 42.7456 101.199 46.5648 105.019 48.3179C109.391 50.3203 114.372 49.6382 118.733 47.9627C120.75 47.1857 122.689 46.1969 124.536 45.0547C124.974 47.012 124.991 49.042 124.421 51.0775C124.365 51.2899 124.296 51.4978 124.237 51.7017C121.959 58.7661 114.719 63.4519 108.387 66.5347C91.9272 74.5248 73.1714 78.198 57.3178 87.374C56.9768 87.5747 56.6444 87.7714 56.3035 87.972C53.7244 89.5184 51.2251 91.2137 48.8297 93.1088C48.3239 93.5105 47.8137 93.9248 47.3159 94.3436C47.2429 94.4087 47.1613 94.4779 47.0883 94.5431C41.2593 99.5009 36.2713 105.483 32.5935 112.188C31.7822 113.663 31.0372 115.17 30.3625 116.716C29.2812 119.187 28.3955 121.722 27.7012 124.312L28.3002 125.594C28.6035 124.294 28.9526 123.003 29.3856 121.714C30.5209 118.318 31.9882 115.057 33.7365 111.954C37.0038 106.165 41.2756 100.931 46.2142 96.4825C52.1201 91.1576 58.9417 87.1946 66.1096 83.9284C66.2625 83.857 66.4069 83.7895 66.5638 83.7266C69.591 82.3639 72.6862 81.1247 75.8047 79.9574C87.1559 75.6988 98.9198 72.3233 109.775 66.8481C116.242 63.5886 123.51 58.4548 125.354 51.0141C125.387 50.885 125.411 50.7598 125.444 50.6307C125.888 48.6128 125.809 46.5602 125.342 44.5644C127.506 43.1706 129.545 41.5764 131.477 39.9081C135.656 36.2905 139.369 32.1658 142.737 27.7887C145.414 24.3244 147.943 20.7219 150.332 17.0403C151.036 15.956 151.732 14.8548 152.408 13.753C154.623 10.1422 156.64 6.22015 157.215 2L156.229 2.46042C155.871 4.55185 155.154 6.60444 154.255 8.53482ZM110.534 48.6689C106.074 48.5805 100.928 46.0293 99.9638 41.3073C99.1664 37.4074 101.855 33.8133 105.174 32.0558C108.509 30.2904 112.049 30.6229 115.236 32.5269C118.453 34.4485 121.087 37.4282 122.874 40.7001C123.478 41.8147 123.975 42.9684 124.317 44.1432C120.205 46.7058 115.452 48.7609 110.534 48.6689Z" fill="#F7A400"/>
</svg>
