<svg width="24" height="24" viewBox="0 0 24 24" fill="none" xmlns="http://www.w3.org/2000/svg">
<path d="M23.0625 11.0625H12.9375V0.9375C12.9375 0.419719 12.5178 0 12 0C11.4822 0 11.0625 0.419719 11.0625 0.9375V11.0625H0.9375C0.419719 11.0625 0 11.4822 0 12C0 12.5178 0.419719 12.9375 0.9375 12.9375H11.0625V23.0625C11.0625 23.5803 11.4822 24 12 24C12.5178 24 12.9375 23.5803 12.9375 23.0625V12.9375H23.0625C23.5803 12.9375 24 12.5178 24 12C24 11.4822 23.5803 11.0625 23.0625 11.0625Z" fill="white"/>
</svg>
