<svg width="24" height="24" viewBox="0 0 24 24" fill="none" xmlns="http://www.w3.org/2000/svg">
<path d="M16.5001 15C15.9999 14.9992 15.5046 15.0992 15.0439 15.2941C14.5833 15.489 14.1666 15.7748 13.8188 16.1344L9.49696 13.3594C9.83433 12.4845 9.83433 11.5155 9.49696 10.6406L13.8188 7.86562C14.4268 8.48742 15.232 8.87858 16.0966 8.97214C16.9612 9.0657 17.8315 8.85585 18.5584 8.3785C19.2854 7.90116 19.8238 7.186 20.0816 6.35543C20.3393 5.52486 20.3004 4.63052 19.9715 3.82548C19.6425 3.02044 19.044 2.35476 18.2784 1.94236C17.5127 1.52996 16.6275 1.39649 15.7743 1.5648C14.9211 1.73311 14.1529 2.19272 13.6012 2.86498C13.0496 3.53724 12.7487 4.38035 12.7501 5.25C12.7516 5.7147 12.8374 6.17528 13.0032 6.60937L8.68133 9.38437C8.16101 8.84981 7.49306 8.48258 6.76292 8.32965C6.03277 8.17671 5.2736 8.24503 4.58249 8.52585C3.89137 8.80667 3.29972 9.28724 2.88318 9.9061C2.46664 10.525 2.24414 11.254 2.24414 12C2.24414 12.746 2.46664 13.475 2.88318 14.0939C3.29972 14.7128 3.89137 15.1933 4.58249 15.4742C5.2736 15.755 6.03277 15.8233 6.76292 15.6704C7.49306 15.5174 8.16101 15.1502 8.68133 14.6156L13.0032 17.3906C12.8374 17.8247 12.7516 18.2853 12.7501 18.75C12.7501 19.4917 12.97 20.2167 13.3821 20.8334C13.7941 21.4501 14.3798 21.9307 15.065 22.2145C15.7502 22.4984 16.5042 22.5726 17.2317 22.4279C17.9591 22.2832 18.6273 21.9261 19.1517 21.4016C19.6762 20.8772 20.0333 20.209 20.178 19.4816C20.3227 18.7542 20.2485 18.0002 19.9646 17.3149C19.6808 16.6297 19.2002 16.044 18.5835 15.632C17.9668 15.2199 17.2418 15 16.5001 15ZM16.5001 3C16.9451 3 17.3801 3.13196 17.7501 3.37919C18.1201 3.62643 18.4085 3.97783 18.5788 4.38896C18.7491 4.8001 18.7937 5.2525 18.7069 5.68895C18.62 6.12541 18.4057 6.52632 18.0911 6.84099C17.7764 7.15566 17.3755 7.36995 16.939 7.45677C16.5026 7.54358 16.0502 7.49903 15.639 7.32873C15.2279 7.15843 14.8765 6.87004 14.6293 6.50003C14.382 6.13002 14.2501 5.69501 14.2501 5.25C14.2526 4.65402 14.4904 4.08316 14.9118 3.66174C15.3332 3.24031 15.9041 3.00247 16.5001 3ZM6.00008 14.25C5.55508 14.25 5.12006 14.118 4.75005 13.8708C4.38004 13.6236 4.09165 13.2722 3.92135 12.861C3.75106 12.4499 3.7065 11.9975 3.79332 11.561C3.88013 11.1246 4.09443 10.7237 4.40909 10.409C4.72376 10.0943 5.12467 9.88005 5.56113 9.79323C5.99759 9.70642 6.44999 9.75097 6.86112 9.92127C7.27225 10.0916 7.62366 10.38 7.87089 10.75C8.11812 11.12 8.25008 11.555 8.25008 12C8.24762 12.596 8.00977 13.1668 7.58835 13.5883C7.16692 14.0097 6.59606 14.2475 6.00008 14.25ZM16.5001 21C16.0551 21 15.6201 20.868 15.2501 20.6208C14.88 20.3736 14.5917 20.0222 14.4214 19.611C14.2511 19.1999 14.2065 18.7475 14.2933 18.311C14.3801 17.8746 14.5944 17.4737 14.9091 17.159C15.2238 16.8443 15.6247 16.63 16.0611 16.5432C16.4976 16.4564 16.95 16.501 17.3611 16.6713C17.7723 16.8416 18.1237 17.13 18.3709 17.5C18.6181 17.87 18.7501 18.305 18.7501 18.75C18.7476 19.346 18.5098 19.9168 18.0883 20.3383C17.6669 20.7597 17.0961 20.9975 16.5001 21Z" fill="#474AA0"/>
</svg>
