<svg width="46" height="46" viewBox="0 0 46 46" fill="none" xmlns="http://www.w3.org/2000/svg">
<path d="M24.4057 0.5V18.1759L23.0116 19.5701L21.5614 18.1199V0.5H24.4057ZM21.5614 19.5341L22.3045 20.2772L22.0202 20.5614H21.5614V19.5341ZM20.5614 18.5341V20.5614H18.5663L6.08471 8.0798L8.0959 6.06861L20.5614 18.5341ZM19.5663 21.5614H20.5614V22.0202L20.2933 22.2884L19.5663 21.5614ZM23.7187 20.2772L24.4057 19.5901V20.5614H24.0029L23.7187 20.2772ZM25.4057 20.5614V18.5901L37.911 6.08484L39.9222 8.09603L27.4568 20.5614H25.4057ZM25.4057 21.9642V21.5614H26.4568L25.7299 22.2884L25.4057 21.9642ZM23.5887 21.5614L24.4057 22.3784V23.6125L23.6125 24.4057H22.4106L21.5614 23.5565V22.4344L22.4344 21.5614H23.5887ZM20.2933 23.7026L20.5614 23.9707V24.4057H19.5901L20.2933 23.7026ZM18.5901 25.4057H20.5614V27.4568L8.1027 39.9155L6.09151 37.9043L18.5901 25.4057ZM21.5614 26.4568V25.4057H21.9964L22.3045 25.7138L21.5614 26.4568ZM21.5614 45.5V27.871L23.0116 26.4209L24.4057 27.815V45.5H21.5614ZM24.4057 26.4008L23.7187 25.7138L24.0267 25.4057H24.4057V26.4008ZM25.4057 27.4008V25.4057H27.433L39.9154 37.8881L37.9042 39.8993L25.4057 27.4008ZM26.433 24.4057H25.4057V24.0267L25.7299 23.7026L26.433 24.4057ZM45.5 24.4057H27.8472L26.437 22.9955L27.871 21.5614H45.5V24.4057ZM19.5862 22.9955L18.1759 24.4057H0.5V21.5614H18.1521L19.5862 22.9955Z" fill="white" stroke="white"/>
</svg>
