<svg width="52" height="35" viewBox="0 0 52 35" fill="none" xmlns="http://www.w3.org/2000/svg">
<rect x="0.54683" y="0.399857" width="50.2613" height="34.236" rx="4.00634" fill="white" stroke="#D9D9D9" stroke-width="0.728425"/>
<path fill-rule="evenodd" clip-rule="evenodd" d="M12.3414 13.0494C13.0262 13.1072 13.711 12.7028 14.139 12.1902C14.5598 11.6631 14.838 10.9555 14.7667 10.2334C14.1604 10.2623 13.4114 10.6378 12.9834 11.1649C12.5911 11.6198 12.2558 12.3563 12.3414 13.0494ZM20.4879 22.3496V11.0927H24.6607C26.8149 11.0927 28.32 12.5946 28.32 14.7896C28.32 16.9847 26.7864 18.501 24.6037 18.501H22.2141V22.3496H20.4879ZM14.7598 13.1865C14.1565 13.1514 13.606 13.3702 13.1614 13.5469C12.8753 13.6606 12.633 13.7569 12.4487 13.7569C12.2418 13.7569 11.9895 13.6555 11.7062 13.5416C11.335 13.3923 10.9107 13.2216 10.4657 13.2298C9.44562 13.2443 8.49691 13.8291 7.9762 14.7606C6.90623 16.6235 7.69801 19.3818 8.73231 20.8981C9.23876 21.649 9.84507 22.4722 10.644 22.4433C10.9955 22.4299 11.2483 22.3213 11.5099 22.2089C11.8112 22.0795 12.1241 21.9451 12.6127 21.9451C13.0844 21.9451 13.3836 22.076 13.6709 22.2017C13.944 22.3212 14.2063 22.4359 14.5957 22.4289C15.4232 22.4144 15.9439 21.6779 16.4503 20.927C16.9969 20.121 17.2371 19.3344 17.2735 19.2151L17.2778 19.2013C17.2769 19.2004 17.2702 19.1973 17.2583 19.1917L17.2582 19.1917C17.0755 19.1071 15.6791 18.4599 15.6657 16.7246C15.6522 15.268 16.7733 14.5301 16.9498 14.4139C16.9605 14.4068 16.9678 14.4021 16.9711 14.3996C16.2577 13.3309 15.145 13.2154 14.7598 13.1865ZM31.4723 22.4361C32.5565 22.4361 33.5623 21.8802 34.0188 20.9993H34.0544V22.3495H35.6523V16.7463C35.6523 15.1217 34.3683 14.0747 32.3924 14.0747C30.5592 14.0747 29.2039 15.1361 29.154 16.5947H30.709C30.8374 15.9015 31.4723 15.4466 32.3425 15.4466C33.3982 15.4466 33.9902 15.9448 33.9902 16.8619V17.4828L31.836 17.6128C29.8316 17.7355 28.7474 18.5659 28.7474 20.01C28.7474 21.4686 29.8673 22.4361 31.4723 22.4361ZM31.9367 21.1004C31.0166 21.1004 30.4316 20.6528 30.4316 19.9668C30.4316 19.2592 30.9952 18.8476 32.0723 18.7826L33.9911 18.6599V19.2953C33.9911 20.3495 33.1066 21.1004 31.9367 21.1004ZM40.9531 22.7899C40.2612 24.7611 39.4694 25.411 37.786 25.411C37.6576 25.411 37.2296 25.3965 37.1298 25.3676V24.0174C37.2368 24.0318 37.5007 24.0463 37.6362 24.0463C38.3995 24.0463 38.8275 23.7213 39.0914 22.8765L39.2483 22.3783L36.3237 14.183H38.1284L40.1614 20.8331H40.197L42.23 14.183H43.9847L40.9531 22.7899ZM22.2142 12.5657H24.2043C25.7023 12.5657 26.5582 13.3744 26.5582 14.7969C26.5582 16.2193 25.7023 17.0352 24.1972 17.0352H22.2142V12.5657Z" fill="black"/>
</svg>
