<svg width="51" height="36" viewBox="0 0 51 36" fill="none" xmlns="http://www.w3.org/2000/svg">
<rect x="0.364286" y="0.435575" width="50.2714" height="34.2429" rx="4.00714" fill="white" stroke="#D9D9D9" stroke-width="0.728571"/>
<path d="M21.4697 34.3144L50.2483 25.9358V30.6715C50.2483 32.6834 48.6174 34.3144 46.6055 34.3144H21.4697Z" fill="#FD6020"/>
<path fill-rule="evenodd" clip-rule="evenodd" d="M44.7851 14.0758C46.3684 14.0758 47.2392 14.7804 47.2392 16.1113C47.3184 17.129 46.6059 17.9902 45.6559 18.1468L47.7933 21.0434H46.1309L44.3102 18.2251H44.1518V21.0434H42.8061V14.0758H44.7851ZM44.1513 17.2856H44.5471C45.4179 17.2856 45.8137 16.8942 45.8137 16.1896C45.8137 15.5633 45.4179 15.1718 44.5471 15.1718H44.1513V17.2856ZM38.1358 21.0434H41.9356V19.8691H39.4816V17.9902H41.8565V16.8159H39.4816V15.2501H41.9356V14.0758H38.1358V21.0434ZM34.1776 18.7731L32.3568 14.0758H30.9319L33.861 21.2H34.5734L37.5025 14.0758H36.0775L34.1776 18.7731ZM18.1072 17.5988C18.1072 19.556 19.6905 21.2 21.6695 21.2C22.3029 21.2 22.857 21.0434 23.4111 20.8086V19.2428C23.0153 19.7126 22.4612 20.0257 21.8279 20.0257C20.5613 20.0257 19.5321 19.0863 19.5321 17.8336V17.6771C19.453 16.4245 20.4821 15.3284 21.7487 15.2501C22.382 15.2501 23.0153 15.5633 23.4111 16.033V14.4673C22.9362 14.1541 22.3029 14.0758 21.7487 14.0758C19.6905 13.9193 18.1072 15.5633 18.1072 17.5988ZM15.6532 16.7376C14.8616 16.4245 14.6241 16.2679 14.6241 15.8764C14.7033 15.4067 15.0991 15.0153 15.5741 15.0936C15.9699 15.0936 16.3657 15.3284 16.6823 15.6416L17.3948 14.7021C16.8407 14.2324 16.1282 13.9193 15.4157 13.9193C14.3074 13.841 13.3575 14.7021 13.2783 15.7982V15.8764C13.2783 16.8159 13.6741 17.3639 14.9407 17.7554C15.2574 17.8336 15.5741 17.9902 15.8907 18.1468C16.1282 18.3034 16.2865 18.5382 16.2865 18.8514C16.2865 19.3994 15.8115 19.8691 15.3366 19.8691H15.2574C14.6241 19.8691 14.07 19.4777 13.8325 18.9297L12.9617 19.7908C13.4366 20.652 14.3866 21.1217 15.3366 21.1217C16.6032 21.2 17.6323 20.2606 17.7115 19.008V18.7731C17.6323 17.8336 17.2365 17.3639 15.6532 16.7376ZM11.062 21.0434H12.4077V14.0758H11.062V21.0434ZM4.80762 14.0758H6.7867H7.18252C9.08244 14.1541 10.5865 15.7198 10.5074 17.5987C10.5074 18.6165 10.0324 19.5559 9.24077 20.2605C8.5283 20.8085 7.6575 21.1217 6.7867 21.0434H4.80762V14.0758ZM6.54887 19.8692C7.18218 19.9474 7.89465 19.7126 8.36963 19.3211C8.84461 18.8514 9.0821 18.2251 9.0821 17.5205C9.0821 16.8942 8.84461 16.2679 8.36963 15.7982C7.89465 15.4067 7.18218 15.1719 6.54887 15.2502H6.15306V19.8692H6.54887Z" fill="black"/>
<path fill-rule="evenodd" clip-rule="evenodd" d="M27.4491 13.9143C25.47 13.9143 23.8076 15.4801 23.8076 17.5155C23.8076 19.4727 25.3909 21.1168 27.4491 21.1951C29.5074 21.2734 31.0906 19.6293 31.1698 17.5938C31.0906 15.5584 29.5074 13.9143 27.4491 13.9143V13.9143Z" fill="#FD6020"/>
</svg>
