<svg width="52" height="35" viewBox="0 0 52 35" fill="none" xmlns="http://www.w3.org/2000/svg">
<rect x="0.486283" y="0.399857" width="50.2613" height="34.236" rx="4.00634" fill="white" stroke="#D9D9D9" stroke-width="0.728425"/>
<path fill-rule="evenodd" clip-rule="evenodd" d="M24.2049 22.9929V18.5918H26.4764C27.4072 18.5918 28.1928 18.2799 28.8333 17.6648L28.987 17.5089C30.1569 16.2353 30.08 14.2514 28.8333 13.0731C28.2099 12.4494 27.356 12.1115 26.4764 12.1288H22.8301V22.9929H24.2049ZM24.2054 17.2577V13.4631H26.5114C27.0067 13.4631 27.4765 13.6537 27.8267 14.0002C28.5697 14.7279 28.5868 15.9408 27.8694 16.6946C27.5192 17.0671 27.0238 17.275 26.5114 17.2577H24.2054ZM35.3995 16.1397C34.8103 15.5939 34.0076 15.3167 32.9914 15.3167C31.6849 15.3167 30.7028 15.8019 30.0538 16.7635L31.2664 17.5346C31.7105 16.8761 32.3168 16.5469 33.0853 16.5469C33.5721 16.5469 34.0417 16.7289 34.4089 17.0581C34.7676 17.37 34.9725 17.8205 34.9725 18.297V18.6175C34.4431 18.323 33.777 18.167 32.9572 18.167C32.0008 18.167 31.2323 18.3923 30.6601 18.8514C30.088 19.3106 29.7976 19.9171 29.7976 20.6881C29.7806 21.3899 30.0794 22.0569 30.6089 22.5074C31.1469 22.9926 31.83 23.2352 32.6327 23.2352C33.5806 23.2352 34.3321 22.8107 34.9042 21.9616H34.964V22.9926H36.2791V18.4096C36.2791 17.4479 35.9887 16.6856 35.3995 16.1397ZM31.6681 21.624C31.3862 21.4161 31.2154 21.0782 31.2154 20.7143C31.2154 20.3071 31.4033 19.9693 31.7705 19.7007C32.1463 19.4321 32.6161 19.2935 33.1712 19.2935C33.9399 19.2848 34.5378 19.4581 34.9648 19.8047C34.9648 20.3938 34.7342 20.9049 34.2815 21.3381C33.8716 21.754 33.3164 21.9879 32.7356 21.9879C32.3513 21.9965 31.9755 21.8666 31.6681 21.624ZM39.2336 26.259L43.8278 15.5595H42.3334L40.2071 20.8962H40.1815L38.004 15.5595H36.5096L39.524 22.5163L37.8161 26.259H39.2336Z" fill="#3C4043"/>
<path d="M19.4574 17.6387C19.4574 17.2141 19.4232 16.7896 19.3549 16.3738H13.5566V18.7736H16.8785C16.7418 19.5446 16.2978 20.2377 15.6488 20.6709V22.2303H17.6299C18.7913 21.1474 19.4574 19.5446 19.4574 17.6387Z" fill="#4285F4"/>
<path d="M13.5572 23.738C15.2139 23.738 16.6144 23.1835 17.6305 22.2305L15.6494 20.6711C15.0943 21.0523 14.3856 21.2689 13.5572 21.2689C11.9518 21.2689 10.5941 20.1686 10.1073 18.6958H8.06641V20.3072C9.10821 22.4125 11.2345 23.738 13.5572 23.738Z" fill="#34A853"/>
<path d="M10.1073 18.6958C9.85105 17.9247 9.85105 17.0844 10.1073 16.3047V14.7019H8.06602C7.18633 16.4606 7.18633 18.5399 8.06602 20.2985L10.1073 18.6958Z" fill="#FBBC04"/>
<path d="M13.5572 13.7314C14.4368 13.7141 15.2822 14.052 15.9141 14.6671L17.6732 12.8824C16.5546 11.8255 15.0858 11.245 13.5572 11.2623C11.2345 11.2623 9.10821 12.5965 8.06641 14.7018L10.1073 16.3132C10.5941 14.8317 11.9518 13.7314 13.5572 13.7314Z" fill="#EA4335"/>
</svg>
