<svg width="46" height="45" viewBox="0 0 46 45" fill="none" xmlns="http://www.w3.org/2000/svg">
<path fill-rule="evenodd" clip-rule="evenodd" d="M26.1132 13.2697C26.5795 13.9645 27.3754 14.3647 28.2113 14.3244L42.5437 13.6336C44.9476 13.5177 45.9941 16.6281 44.0091 17.9889L32.1739 26.1022C31.4837 26.5753 31.0915 27.3752 31.1401 28.2106L31.9689 42.4683C32.1086 44.871 29.0086 45.9482 27.6283 43.9766L19.342 32.141C18.8717 31.4693 18.0897 31.0858 17.2706 31.1253L2.90727 31.8176C0.50335 31.9334 -0.543122 28.8231 1.44194 27.4623L13.3026 19.3315C13.979 18.8678 14.3701 18.0896 14.3387 17.2702L13.7854 2.83266C13.6932 0.427644 16.8139 -0.588083 18.155 1.41043L26.1132 13.2697Z" fill="#D9DAEE"/>
</svg>
