<svg width="145" height="92" viewBox="0 0 145 92" fill="none" xmlns="http://www.w3.org/2000/svg">
<path d="M137.114 1.94273C134.661 2.33902 132.265 2.97598 129.918 3.71521C127.663 4.41437 125.448 5.2098 123.255 5.97716C113.779 9.29805 104.338 13.5234 97.2712 20.3242C101.916 22.9476 105.774 27.55 107.729 32.0506C109.186 35.3969 109.41 38.816 107.649 41.7092C105.898 44.5883 102.52 46.7159 98.7528 46.443C94.1961 46.1037 90.7725 42.2564 89.5637 38.1632C88.1842 33.4803 89.6116 28.9307 91.9528 25.2326C93.0378 23.5224 94.3255 21.9426 95.7548 20.4912C93.8388 19.5561 91.7868 19.002 89.6422 19.0044C89.419 19.0013 89.1985 19.0113 88.9833 19.0142C81.4964 19.3057 75.6825 24.9398 71.6253 30.1374C61.1027 43.653 54.6092 60.4937 42.976 73.1196C42.7224 73.3902 42.4742 73.6539 42.2206 73.9245C40.2738 75.9643 38.1882 77.8888 35.9157 79.6618C35.4342 80.0356 34.9394 80.4105 34.4419 80.7723C34.3652 80.8244 34.2831 80.8835 34.2063 80.9356C28.3259 85.158 21.5331 88.3103 14.2033 90.0266C12.5897 90.4061 10.9546 90.7144 9.2897 90.9455C6.62913 91.3177 3.93285 91.4873 1.20886 91.4604L-0.000164509 90.5516C1.36075 90.6082 2.71874 90.6186 4.08689 90.5489C7.69195 90.3705 11.21 89.8412 14.6093 89.003C20.9514 87.4338 26.8807 84.7635 32.1141 81.2518C38.3774 77.0536 43.3979 71.6248 47.7644 65.6823C47.8593 65.556 47.949 65.4367 48.0359 65.3044C49.863 62.7903 51.5753 60.1789 53.2183 57.5264C59.2083 47.8736 64.3657 37.5949 71.5136 28.7356C75.7697 23.4569 82.0411 17.9141 89.8445 18.1351C89.9801 18.1382 90.1103 18.1482 90.2459 18.1513C92.3538 18.2642 94.4195 18.8835 96.3704 19.8557C98.1013 18.1698 100.016 16.6553 101.991 15.2622C106.271 12.2526 110.995 9.81857 115.923 7.77968C119.825 6.15558 123.846 4.70797 127.925 3.4148C129.127 3.03316 130.345 2.66355 131.56 2.314C135.542 1.16718 139.81 0.290173 144.166 0.863037L143.554 1.67701C141.385 1.46277 139.201 1.60046 137.114 1.94273ZM90.0247 32.8322C89.4539 37.0923 91.2744 42.6556 95.9107 44.8228C99.7397 46.6138 103.775 45.0128 106.045 42.3263C108.325 39.6259 108.513 36.1758 107.058 32.6439C105.589 29.08 102.963 25.7885 99.9161 23.2237C98.8774 22.3551 97.7834 21.5767 96.645 20.9407C93.4428 24.1672 90.6594 28.1369 90.0247 32.8322Z" fill="#222580"/>
</svg>
