<svg width="52" height="35" viewBox="0 0 52 35" fill="none" xmlns="http://www.w3.org/2000/svg">
<rect x="0.424759" y="0.364212" width="50.2613" height="34.236" rx="4.00634" fill="white" stroke="#D9D9D9" stroke-width="0.728425"/>
<path fill-rule="evenodd" clip-rule="evenodd" d="M25.9189 24.995C24.183 26.493 21.9311 27.3974 19.4705 27.3974C13.9801 27.3974 9.5293 22.8949 9.5293 17.3408C9.5293 11.7867 13.9801 7.28418 19.4705 7.28418C21.9312 7.28418 24.1831 8.18858 25.919 9.68671C27.655 8.18863 29.9068 7.28427 32.3674 7.28427C37.8578 7.28427 42.3086 11.7868 42.3086 17.3409C42.3086 22.895 37.8578 27.3975 32.3674 27.3975C29.9067 27.3975 27.6549 26.4931 25.9189 24.995Z" fill="#ED0006"/>
<path fill-rule="evenodd" clip-rule="evenodd" d="M25.918 24.9956C28.0557 23.151 29.4112 20.4062 29.4112 17.341C29.4112 14.2759 28.0557 11.5311 25.918 9.68648C27.6539 8.18863 29.9055 7.28442 32.3659 7.28442C37.8563 7.28442 42.3071 11.7869 42.3071 17.341C42.3071 22.8951 37.8563 27.3976 32.3659 27.3976C29.9055 27.3976 27.6539 26.4934 25.918 24.9956Z" fill="#F9A000"/>
<path fill-rule="evenodd" clip-rule="evenodd" d="M25.9194 24.9952C28.0568 23.1506 29.4121 20.406 29.4121 17.3411C29.4121 14.2762 28.0568 11.5316 25.9194 9.68701C23.7821 11.5316 22.4268 14.2762 22.4268 17.3411C22.4268 20.406 23.7821 23.1506 25.9194 24.9952Z" fill="#FF5E00"/>
</svg>
