<svg width="51" height="35" viewBox="0 0 51 35" fill="none" xmlns="http://www.w3.org/2000/svg">
<rect x="0.364212" y="0.399857" width="50.2613" height="34.236" rx="4.00634" fill="white" stroke="#D9D9D9" stroke-width="0.728425"/>
<path fill-rule="evenodd" clip-rule="evenodd" d="M5.9022 20.6839L5.9022 20.6839C5.93922 20.4735 5.97508 20.2697 6.01631 20.0659C6.19092 19.144 6.36674 18.2233 6.54256 17.3026C6.71839 16.3819 6.89421 15.4612 7.06882 14.5393C7.09307 14.4225 7.12703 14.3447 7.24343 14.3252C8.15044 14.189 9.06229 14.0917 9.96929 14.3203C10.7599 14.5149 11.3128 15.0744 11.405 15.7312C11.5941 17.0399 10.8326 18.0858 9.70253 18.4604C9.10594 18.655 8.49966 18.7037 7.88367 18.6453C7.73816 18.6307 7.69451 18.6696 7.67026 18.8107C7.5393 19.5259 7.40349 20.2362 7.26283 20.9465C7.25313 21.0048 7.19978 21.0973 7.16583 21.0973C6.83621 21.1045 6.512 21.1037 6.17502 21.1028H6.17501H6.175H6.17499H6.17498H6.17497C6.06073 21.1025 5.94503 21.1021 5.82715 21.1021C5.85382 20.9588 5.87825 20.82 5.9022 20.6839ZM7.91335 17.4873C8.00818 17.4873 8.10001 17.4898 8.1895 17.4923C8.37922 17.4974 8.55837 17.5023 8.73305 17.4825C9.23748 17.429 9.64006 17.2003 9.86802 16.7187C10.1251 16.1738 9.94077 15.5949 9.45574 15.4246C9.11137 15.303 8.7573 15.3273 8.40323 15.3759C8.35958 15.3808 8.30138 15.4489 8.29167 15.4927C8.22393 15.8487 8.15619 16.2063 8.08591 16.5773L8.08574 16.5782L8.08571 16.5783L8.08566 16.5786L8.08556 16.5791L7.91335 17.4873ZM14.4277 20.1678C14.351 20.2478 14.2791 20.3284 14.2088 20.4071C14.0571 20.5771 13.9129 20.7386 13.7438 20.8683C13.2345 21.2624 12.6525 21.35 12.0656 21.0775C11.4836 20.81 11.2459 20.2894 11.2217 19.6764C11.1683 18.3872 11.6194 17.3218 12.701 16.5823C13.38 16.1152 14.1609 15.9742 14.9709 16.0179C15.2389 16.0337 15.5048 16.0804 15.7713 16.1271L15.7713 16.1271C15.9148 16.1523 16.0586 16.1775 16.2029 16.1979C16.3678 16.2223 16.3921 16.3147 16.363 16.4558C16.3241 16.6588 16.2849 16.8616 16.2456 17.0642L16.2455 17.065L16.2453 17.0656L16.2453 17.0657C16.0984 17.8242 15.9519 18.581 15.8294 19.3407C15.7592 19.7757 15.7312 20.2212 15.7035 20.6623V20.6623V20.6623V20.6623V20.6623L15.7035 20.6623L15.7035 20.6625L15.7035 20.6627L15.7035 20.6629L15.7034 20.6631C15.6986 20.7398 15.6938 20.8163 15.6888 20.8927C15.6791 21.0483 15.6403 21.1116 15.4802 21.1067C15.1795 21.097 14.8788 21.097 14.5781 21.1067C14.4229 21.1116 14.3695 21.0532 14.3841 20.9024C14.3979 20.7357 14.4068 20.5641 14.4161 20.3857C14.4198 20.3142 14.4235 20.2416 14.4277 20.1678ZM14.7673 17.1611C14.2969 17.0297 13.904 17.1221 13.5742 17.3994C12.9533 17.9249 12.672 18.606 12.7254 19.4184C12.7399 19.6665 12.8369 19.9049 13.0988 20.0119C13.3608 20.119 13.5984 20.0411 13.8021 19.866C13.9234 19.759 14.0398 19.6373 14.1271 19.5011C14.4692 18.9774 14.5627 18.3866 14.6576 17.7865C14.6905 17.5783 14.7236 17.369 14.7673 17.1611ZM21.6388 19.8858C21.9056 20.742 22.638 21.2188 23.9233 21.2188C24.8061 21.1944 25.684 20.6933 26.2321 19.662C26.5231 19.1074 26.6298 18.5138 26.591 17.8911C26.557 17.2927 26.3194 16.7868 25.8343 16.4267C25.3251 16.0473 24.743 15.9694 24.1222 16.0375C22.0463 16.2711 21.1975 18.4749 21.6388 19.8858ZM23.0199 19.1714C23.0205 19.1466 23.021 19.1219 23.021 19.0978C23.0356 18.5383 23.1714 18.0177 23.506 17.5556C23.6564 17.3512 23.8456 17.1955 24.0978 17.1372C24.6119 17.0204 25.0339 17.3172 25.0824 17.8766C25.1406 18.5626 24.9757 19.1951 24.544 19.7448C24.3791 19.9491 24.1705 20.0902 23.9038 20.1145C23.4236 20.1583 23.0598 19.8324 23.021 19.3215C23.0178 19.2727 23.0189 19.2217 23.0199 19.1715V19.1714ZM27.7454 16.1397H28.9774C28.958 16.4024 28.9386 16.6554 28.9143 16.9133C28.9592 16.8713 29.0027 16.8298 29.0453 16.7892C29.136 16.7026 29.2229 16.6197 29.312 16.5435C29.7922 16.1251 30.3403 15.9403 30.9757 16.0424C31.4995 16.13 31.8633 16.5143 31.9215 17.0543C31.9847 17.6163 31.8797 18.1613 31.7748 18.7052L31.7517 18.8252C31.7092 19.0462 31.6671 19.2672 31.6251 19.4881L31.625 19.4882L31.625 19.4884L31.625 19.4886C31.5328 19.9725 31.4409 20.4557 31.3443 20.9366C31.3297 20.9998 31.257 21.0923 31.2085 21.0971C30.7914 21.1069 30.3742 21.102 29.9571 21.0971C29.9431 21.0971 29.9291 21.0896 29.9079 21.078C29.8997 21.0736 29.8903 21.0685 29.8795 21.0631C29.9571 20.6593 30.0347 20.2506 30.1075 19.842C30.219 19.2144 30.3257 18.5917 30.4227 17.9641C30.4421 17.8571 30.4324 17.7452 30.4179 17.6381C30.3791 17.2635 30.1026 17.0933 29.7437 17.2052C29.3945 17.317 29.1859 17.5895 29.0162 17.8911C28.7639 18.3338 28.6766 18.8252 28.5893 19.3166C28.5676 19.4376 28.5461 19.5583 28.5246 19.6789L28.5242 19.6813C28.45 20.0982 28.3761 20.5135 28.2935 20.9317C28.2789 20.995 28.2062 21.0923 28.1577 21.0971C27.8175 21.1088 27.4743 21.1081 27.1084 21.1073H27.1081H27.1078C27.0147 21.1071 26.9202 21.1069 26.8238 21.1069C27.1439 19.4333 27.4447 17.7938 27.7454 16.1397ZM34.7405 20.0853C34.2264 20.022 33.882 19.662 33.9159 19.156C34.0232 19.156 34.1298 19.1577 34.236 19.1593H34.236H34.2361C34.4468 19.1625 34.6553 19.1657 34.8618 19.156C35.3613 19.1268 35.8512 19.0441 36.3071 18.8155C36.8892 18.5236 37.1608 18.042 37.1171 17.4144C37.0735 16.7771 36.7291 16.3149 36.1131 16.13C35.1916 15.8527 34.3428 16.0473 33.6201 16.6652C32.7422 17.4144 32.4124 18.4068 32.5385 19.5404C32.6258 20.3431 33.0623 20.9172 33.8577 21.1215C34.7114 21.3404 35.5505 21.2237 36.3605 20.8928C36.4187 20.8685 36.4866 20.7761 36.4817 20.7177C36.4701 20.4803 36.446 20.2429 36.422 20.0054C36.416 19.9461 36.41 19.8867 36.4041 19.8274C36.3882 19.8274 36.3764 19.8266 36.3673 19.826C36.3542 19.8251 36.3468 19.8245 36.3411 19.8274C36.2877 19.8469 36.2344 19.8663 36.1859 19.8858C35.7203 20.0658 35.2401 20.1436 34.7405 20.0853ZM35.4929 17.93C35.1971 18.0857 34.4307 18.1781 34.0573 18.1003C34.1349 17.4532 34.8188 16.9473 35.3959 17.0884C35.59 17.137 35.7306 17.2392 35.7646 17.4484C35.7985 17.6527 35.6967 17.823 35.4929 17.93ZM38.7604 19.1756C38.7167 19.6523 39.0562 20.0172 39.5752 20.0853C40.0603 20.1437 40.5259 20.0707 40.9818 19.9053C41.0238 19.8895 41.0644 19.8737 41.109 19.8564C41.1467 19.8417 41.1873 19.8259 41.234 19.808C41.2435 19.9111 41.254 20.0121 41.2644 20.1117L41.2644 20.1118C41.2859 20.3178 41.3067 20.5178 41.3165 20.7178C41.3213 20.7761 41.2534 20.8686 41.2001 20.8929C40.3755 21.2335 39.5267 21.3502 38.6585 21.1118C37.8776 20.8978 37.4702 20.3286 37.3732 19.5502C37.2519 18.5528 37.509 17.6528 38.2026 16.9133C38.9495 16.1203 39.8662 15.8382 40.9236 16.1301C41.5687 16.3101 41.9131 16.7771 41.9519 17.4339C41.9907 18.0761 41.6997 18.5577 41.0934 18.8399C40.4822 19.122 39.8323 19.1658 39.1727 19.1804C39.0417 19.1756 38.9059 19.1756 38.7604 19.1756ZM39.1615 18.125L39.1615 18.125C39.3767 18.1142 39.584 18.1038 39.7888 18.0759C39.9828 18.0516 40.1768 17.9932 40.3514 17.9105C40.5406 17.8278 40.6327 17.6527 40.6036 17.4386C40.5745 17.2343 40.4387 17.137 40.2496 17.0883C39.6772 16.9326 38.9642 17.4581 38.9012 18.1392C38.9894 18.1336 39.0761 18.1293 39.1615 18.125ZM42.2184 20.0853C42.1553 20.4161 42.0971 20.742 42.0341 21.102C42.1312 21.102 42.227 21.1022 42.3216 21.1024C42.6948 21.1032 43.0508 21.104 43.4067 21.0923C43.4407 21.0923 43.494 20.9999 43.5037 20.9415C43.5532 20.6985 43.599 20.4544 43.6449 20.2103C43.7294 19.7603 43.8139 19.3106 43.9208 18.869C44.1585 17.8863 44.5611 17.5457 45.5166 17.4192C45.5554 17.4144 45.6184 17.3706 45.6281 17.3365C45.689 17.0569 45.7435 16.7752 45.8001 16.4829C45.8292 16.3328 45.8588 16.1798 45.8901 16.023C44.9685 15.9257 44.4544 16.4608 44.0081 17.1176L44.0152 17.0239C44.0371 16.7331 44.0595 16.437 44.0857 16.1252C43.9849 16.1252 43.8859 16.1248 43.7884 16.1245C43.5011 16.1236 43.2259 16.1228 42.9508 16.13C42.912 16.1349 42.8392 16.2225 42.8344 16.276C42.7309 17.5264 42.4859 18.7493 42.2412 19.9715C42.2336 20.0094 42.226 20.0473 42.2184 20.0853Z" fill="black"/>
<path fill-rule="evenodd" clip-rule="evenodd" d="M29.3776 10.2703C29.3285 10.2573 29.2794 10.2443 29.2303 10.2334C29.08 10.2334 28.9296 10.2334 28.7695 10.2383C28.7149 10.2492 28.6602 10.2612 28.6051 10.2732C28.538 10.2879 28.4702 10.3027 28.4009 10.3161C27.6588 10.4572 26.9604 10.715 26.2862 11.0556C24.8263 11.7951 23.5167 12.7535 22.3429 13.887C21.562 14.6362 20.8054 15.4195 20.073 16.2222C18.7876 17.6331 17.6866 19.185 16.8087 20.8877C16.3577 21.7683 15.9502 22.6683 15.7659 23.6462C15.732 23.8262 15.7902 24.0354 15.8484 24.2154C15.8726 24.2884 16.0084 24.3419 16.1006 24.3711C16.1248 24.3808 16.1976 24.2592 16.2315 24.1911C16.2436 24.1647 16.2559 24.1377 16.2685 24.11C16.4792 23.6486 16.764 23.0246 17.0112 22.6114C17.535 21.7357 17.9485 21.058 18.5354 20.2261C19.4764 18.8882 20.5758 17.5756 21.7302 16.4177C22.8215 15.3231 23.9144 14.3443 25.287 13.6048C25.9176 13.2692 26.5627 12.9383 27.2223 12.6659C28.3621 12.194 29.5504 11.8729 30.7727 11.6929C30.9037 11.6734 31.0783 11.5713 31.1219 11.4642C31.1607 11.3669 31.0686 11.1821 30.9764 11.0896C30.6029 10.7053 30.1664 10.4134 29.6232 10.3258C29.5413 10.3137 29.4595 10.292 29.3776 10.2703ZM18.2741 16.9082C18.507 16.2758 18.6234 15.619 18.6379 14.9379C18.6315 14.8649 18.6261 14.792 18.6207 14.719C18.6099 14.573 18.5991 14.4271 18.5797 14.2811C18.4488 13.1525 17.9637 12.1941 17.1925 11.3719C17.1004 11.2794 16.9743 11.2065 16.8482 11.1627C16.7221 11.114 16.6396 11.187 16.6493 11.333C16.6495 11.336 16.6498 11.3391 16.65 11.3422C16.6595 11.4658 16.6693 11.5939 16.693 11.7173C16.727 11.9117 16.7609 12.1063 16.7947 12.3011C16.9151 12.9934 17.0358 13.6874 17.1683 14.3784C17.2992 15.0741 17.4447 15.765 17.6 16.4509C17.6533 16.6699 17.7406 16.8888 17.8473 17.0931C17.9298 17.2488 18.0462 17.2342 18.1529 17.0931L18.1529 17.0931C18.2014 17.0347 18.2499 16.9764 18.2741 16.9082Z" fill="#FC461E"/>
</svg>
