<svg width="52" height="35" viewBox="0 0 52 35" fill="none" xmlns="http://www.w3.org/2000/svg">
<rect x="0.54683" y="0.364212" width="50.2613" height="34.236" rx="4.00634" fill="white" stroke="#D9D9D9" stroke-width="0.728425"/>
<path fill-rule="evenodd" clip-rule="evenodd" d="M14.6058 22.2039H12.3395C12.1844 22.2039 12.0525 22.3166 12.0284 22.4696L11.1118 28.2811C11.0935 28.3958 11.1823 28.4992 11.2987 28.4992H12.3806C12.5357 28.4992 12.6676 28.3864 12.6918 28.2331L12.939 26.6657C12.9628 26.5122 13.0951 26.3996 13.2498 26.3996H13.9673C15.4602 26.3996 16.3217 25.6771 16.5468 24.2456C16.6482 23.6193 16.5511 23.1272 16.2577 22.7825C15.9357 22.4041 15.3643 22.2039 14.6058 22.2039ZM14.8673 24.3264C14.7434 25.1396 14.122 25.1396 13.5212 25.1396H13.1792L13.4192 23.6208C13.4334 23.5291 13.5129 23.4615 13.6057 23.4615H13.7625C14.1717 23.4615 14.5578 23.4615 14.7573 23.6948C14.8762 23.834 14.9127 24.0407 14.8673 24.3264ZM21.3803 24.3003H20.2951C20.2026 24.3003 20.1227 24.368 20.1084 24.4598L20.0604 24.7633L19.9845 24.6534C19.7496 24.3123 19.2257 24.1984 18.7028 24.1984C17.5034 24.1984 16.4792 25.1067 16.2797 26.3809C16.176 27.0164 16.3234 27.6241 16.6839 28.048C17.0147 28.4377 17.4879 28.6001 18.0509 28.6001C19.0172 28.6001 19.5531 27.9787 19.5531 27.9787L19.5047 28.2803C19.4864 28.3956 19.5752 28.499 19.6909 28.499H20.6685C20.824 28.499 20.9551 28.3863 20.9796 28.2329L21.5662 24.5184C21.5848 24.4042 21.4963 24.3003 21.3803 24.3003ZM19.8675 26.4126C19.7628 27.0326 19.2707 27.4488 18.6431 27.4488C18.328 27.4488 18.076 27.3478 17.9144 27.1562C17.754 26.9661 17.693 26.6953 17.744 26.3938C17.8419 25.779 18.3423 25.3493 18.9603 25.3493C19.2684 25.3493 19.5189 25.4516 19.684 25.6448C19.8493 25.84 19.9149 26.1124 19.8675 26.4126ZM26.0697 24.3002H27.1604C27.3131 24.3002 27.4022 24.4715 27.3154 24.5968L23.6882 29.8326C23.6294 29.9174 23.5327 29.9678 23.4293 29.9678H22.34C22.1867 29.9678 22.0971 29.7951 22.1859 29.6695L23.3154 28.0753L22.1141 24.55C22.0726 24.4275 22.1631 24.3002 22.2934 24.3002H23.365C23.5043 24.3002 23.6271 24.3916 23.6673 24.5249L24.3048 26.654L25.809 24.4384C25.8679 24.3519 25.9658 24.3002 26.0697 24.3002Z" fill="#253B80"/>
<path fill-rule="evenodd" clip-rule="evenodd" d="M37.895 28.2811L38.8251 22.3634C38.8394 22.2715 38.919 22.2039 39.0114 22.2036H40.0585C40.1741 22.2036 40.2629 22.3073 40.2447 22.422L39.3275 28.2331C39.3036 28.3865 39.1717 28.4992 39.0163 28.4992H38.0812C37.9656 28.4992 37.8768 28.3959 37.895 28.2811ZM30.7719 22.2039H28.5052C28.3505 22.2039 28.2186 22.3166 28.1944 22.4697L27.2778 28.2811C27.2595 28.3959 27.3483 28.4992 27.4641 28.4992H28.6271C28.7352 28.4992 28.8277 28.4204 28.8446 28.313L29.1047 26.6657C29.1286 26.5122 29.2608 26.3997 29.4155 26.3997H30.1326C31.6258 26.3997 32.4872 25.6772 32.7125 24.2457C32.8141 23.6194 32.7164 23.1273 32.4232 22.7825C32.1013 22.4042 31.5304 22.2039 30.7719 22.2039ZM31.0334 24.3265C30.9098 25.1397 30.2884 25.1397 29.6873 25.1397H29.3456L29.5859 23.6209C29.6002 23.5292 29.679 23.4616 29.7721 23.4616H29.9288C30.3378 23.4616 30.7242 23.4616 30.9236 23.6948C31.0426 23.8341 31.0788 24.0408 31.0334 24.3265ZM37.5458 24.3004H36.4613C36.3681 24.3004 36.2889 24.368 36.275 24.4599L36.227 24.7634L36.1508 24.6534C35.9158 24.3124 35.3923 24.1984 34.8694 24.1984C33.67 24.1984 32.646 25.1067 32.4465 26.3809C32.3432 27.0164 32.4899 27.6242 32.8505 28.048C33.1819 28.4377 33.6545 28.6001 34.2175 28.6001C35.1837 28.6001 35.7195 27.9787 35.7195 27.9787L35.6712 28.2804C35.653 28.3957 35.7418 28.4991 35.8582 28.4991H36.8353C36.9901 28.4991 37.122 28.3863 37.1462 28.233L37.7331 24.5185C37.751 24.4042 37.6622 24.3004 37.5458 24.3004ZM36.0332 26.4127C35.929 27.0327 35.4363 27.4489 34.8086 27.4489C34.4941 27.4489 34.2417 27.3478 34.0799 27.1563C33.9195 26.9661 33.8592 26.6953 33.9097 26.3938C34.008 25.779 34.5078 25.3493 35.1258 25.3493C35.434 25.3493 35.6844 25.4516 35.8496 25.6449C36.0155 25.8401 36.0812 26.1124 36.0332 26.4127Z" fill="#179BD7"/>
<path d="M22.993 20.125L23.2717 18.3553L22.651 18.3409H19.6875L21.747 5.28193C21.7533 5.2425 21.7742 5.20575 21.8045 5.17965C21.8349 5.15354 21.8739 5.13916 21.9143 5.13916H26.9113C28.5703 5.13916 29.7151 5.48437 30.3129 6.16574C30.593 6.48538 30.7715 6.8194 30.8579 7.18699C30.9484 7.5727 30.95 8.03351 30.8616 8.59555L30.8551 8.63657V8.99669L31.1354 9.15546C31.3715 9.28064 31.5589 9.42395 31.7027 9.58804C31.9425 9.86133 32.0976 10.2087 32.1631 10.6205C32.2307 11.044 32.2083 11.548 32.0976 12.1185C31.9697 12.7749 31.763 13.3465 31.4839 13.8142C31.227 14.2452 30.8999 14.6026 30.5116 14.8797C30.1408 15.1429 29.7002 15.3427 29.2021 15.4706C28.7194 15.5962 28.1691 15.6597 27.5655 15.6597H27.1766C26.8986 15.6597 26.6284 15.7598 26.4165 15.9394C26.2039 16.1226 26.0631 16.3729 26.0201 16.6468L25.9908 16.8061L25.4985 19.9252L25.4761 20.0397C25.4703 20.0761 25.4602 20.0942 25.4453 20.1064C25.4319 20.1175 25.4128 20.125 25.3941 20.125H22.993Z" fill="#253B80"/>
<path d="M31.4017 8.67822C31.3868 8.77358 31.3698 8.87106 31.3506 8.97122C30.6915 12.3546 28.4371 13.5235 25.5575 13.5235H24.0915C23.7394 13.5235 23.4427 13.7792 23.3878 14.1265L22.6371 18.8871L22.4245 20.2364C22.3888 20.4645 22.5647 20.6701 22.7947 20.6701H25.3951C25.7031 20.6701 25.9645 20.4464 26.013 20.1427L26.0386 20.0105L26.5283 16.9036L26.5597 16.7332C26.6076 16.4285 26.8696 16.2048 27.1776 16.2048H27.5665C30.0858 16.2048 32.058 15.1819 32.6345 12.222C32.8752 10.9855 32.7506 9.95306 32.1134 9.22693C31.9206 9.00798 31.6814 8.82632 31.4017 8.67822Z" fill="#179BD7"/>
<path d="M30.7103 8.40328C30.6097 8.37397 30.5058 8.34734 30.3992 8.32337C30.2921 8.29993 30.1823 8.27916 30.0695 8.26104C29.6741 8.19711 29.2411 8.16675 28.777 8.16675H24.8604C24.7639 8.16675 24.6724 8.18859 24.5903 8.22801C24.4097 8.31484 24.2755 8.48586 24.243 8.69522L23.4097 13.9725L23.3857 14.1265C23.4406 13.7791 23.7374 13.5234 24.0895 13.5234H25.5555C28.435 13.5234 30.6896 12.354 31.3486 8.97118C31.3682 8.87102 31.3848 8.77353 31.3997 8.67818C31.233 8.58974 31.0523 8.51409 30.8579 8.44962C30.81 8.43364 30.7605 8.4182 30.7103 8.40328Z" fill="#222D65"/>
<path d="M24.2437 8.69528C24.2762 8.48591 24.4106 8.31491 24.5911 8.2286C24.6737 8.18917 24.7648 8.16733 24.8611 8.16733H28.7779C29.242 8.16733 29.675 8.1977 30.0702 8.26163C30.1832 8.27974 30.293 8.30052 30.4001 8.32395C30.5067 8.34794 30.6105 8.37458 30.7112 8.40387C30.7612 8.41879 30.8108 8.43423 30.8592 8.44969C31.0537 8.51414 31.2343 8.59033 31.401 8.67823C31.5972 7.4279 31.3995 6.57659 30.7235 5.80571C29.9782 4.95707 28.633 4.59375 26.9118 4.59375H21.9146C21.563 4.59375 21.2632 4.84945 21.2087 5.19733L19.1274 18.3905C19.0863 18.6515 19.2877 18.8871 19.5508 18.8871H22.636L23.4106 13.9726L24.2437 8.69528Z" fill="#253B80"/>
</svg>
