<svg width="52" height="35" viewBox="0 0 52 35" fill="none" xmlns="http://www.w3.org/2000/svg">
<rect x="0.424759" y="0.399857" width="50.2613" height="34.236" rx="4.00634" fill="white" stroke="#D9D9D9" stroke-width="0.728425"/>
<path fill-rule="evenodd" clip-rule="evenodd" d="M33.5057 11.4429C32.6812 11.4429 32.0117 12.1089 32.0117 12.9301C32.0117 13.7517 32.6812 14.4163 33.5057 14.4163C34.3316 14.4163 35.0006 13.7517 35.0006 12.9301C35.0006 12.1089 34.3316 11.4429 33.5057 11.4429ZM11.9534 16.4258C11.5703 16.4012 10.6828 16.3437 10.6828 15.5491C10.6828 14.5903 11.9597 14.5903 12.4389 14.5903C13.2818 14.5903 14.3723 14.8376 15.1521 15.07C15.1521 15.07 15.5862 15.2226 15.9557 15.3781L15.9901 15.3878V12.7616L15.944 12.7476C15.0234 12.4274 13.9548 12.1197 11.9723 12.1197C8.55467 12.1197 7.34375 14.0996 7.34375 15.7974C7.34375 16.775 7.76519 19.078 11.6781 19.3432L11.6817 19.3434C12.0171 19.3639 12.8915 19.4172 12.8915 20.2353C12.8915 20.9135 12.1704 21.3124 10.9581 21.3124C9.62965 21.3124 8.34007 20.9763 7.55739 20.656V23.3599C8.72946 23.6666 10.0511 23.8183 11.5999 23.8183C14.9404 23.8183 16.4378 21.9447 16.4378 20.087C16.4378 17.9816 14.7632 16.6132 11.9534 16.4258ZM22.04 15.2586L22.0554 15.2187H25.6338C25.5318 15.5428 24.8934 17.4986 23.4377 19.335C23.4377 19.335 25.0589 22.1611 25.4294 23.6942H21.6825C21.6825 23.6942 21.2349 21.6588 20.3288 20.3063V23.6942H17.2001V12.7356L20.3288 12.1197V18.1661C21.4375 16.8322 21.9315 15.5421 22.04 15.2586ZM40.733 23.6942V12.6593L43.7651 12.1197V23.6942H40.733ZM30.2806 15.1043C27.4796 15.1941 26.0565 16.4451 26.0565 18.9317V23.6942H29.1134V19.8098C29.1134 18.3216 29.3095 17.6835 31.0851 17.6227V15.1482C30.7865 15.0849 30.2806 15.1043 30.2806 15.1043ZM31.9906 23.6943V15.2285H35.0223V23.6943H31.9906ZM36.307 12.6593L39.3372 12.1197V23.6942H36.307V12.6593Z" fill="#862165"/>
</svg>
