<svg width="52" height="35" viewBox="0 0 52 35" fill="none" xmlns="http://www.w3.org/2000/svg">
<rect x="0.486283" y="0.364212" width="50.2613" height="34.236" rx="4.00634" fill="white" stroke="#D9D9D9" stroke-width="0.728425"/>
<path fill-rule="evenodd" clip-rule="evenodd" d="M27.5188 11.8614L24.9286 12.4173V10.3173L27.5188 9.77173V11.8614ZM16.9926 10.966L14.4747 11.5013L14.4644 19.7469C14.4644 21.2704 15.6098 22.3925 17.1371 22.3925C17.9833 22.3925 18.6024 22.2381 18.943 22.0528V19.9631C18.6128 20.0969 16.9823 20.5704 16.9823 19.0469V15.3925H18.943V13.1998H16.9823L16.9926 10.966ZM44.5555 17.7392C44.5555 15.1039 43.2759 13.0245 40.8302 13.0245C38.3742 13.0245 36.8882 15.1039 36.8882 17.7186C36.8882 20.8172 38.6425 22.3819 41.1604 22.3819C42.3884 22.3819 43.3171 22.1039 44.0189 21.7128V19.6539C43.3171 20.0039 42.5122 20.2201 41.4906 20.2201C40.4896 20.2201 39.6022 19.8701 39.4887 18.6554H44.5348C44.5348 18.5988 44.5385 18.4703 44.5428 18.3221L44.5428 18.3213C44.5486 18.1195 44.5555 17.8815 44.5555 17.7392ZM39.4572 16.7614C39.4572 15.5981 40.1692 15.1143 40.8193 15.1143C41.4488 15.1143 42.1196 15.5981 42.1196 16.7614H39.4572ZM10.8942 15.2586C10.3473 15.2586 10.0171 15.413 10.0171 15.8145C10.0171 16.2528 10.5854 16.4457 11.2904 16.6849C12.4398 17.0749 13.9527 17.5882 13.9591 19.4895C13.9591 21.3322 12.4834 22.3925 10.337 22.3925C9.44949 22.3925 8.47947 22.2175 7.51976 21.8057V19.3557C8.38659 19.8292 9.48045 20.1792 10.337 20.1792C10.9148 20.1792 11.3276 20.0248 11.3276 19.5513C11.3276 19.0657 10.7116 18.8438 9.9678 18.5759C8.83511 18.1678 7.40625 17.6531 7.40625 15.938C7.40625 14.116 8.79937 13.0248 10.8942 13.0248C11.7507 13.0248 12.5969 13.1586 13.4534 13.4983V15.9174C12.6691 15.4954 11.6785 15.2586 10.8942 15.2586ZM22.1537 13.9613L21.9886 13.1996H19.7596V22.2069H22.3394V16.1025C22.9483 15.3099 23.9802 15.454 24.3001 15.5672V13.1996C23.9699 13.076 22.7625 12.8496 22.1537 13.9613ZM24.9286 13.1997H27.5188V22.2071H24.9286V13.1997ZM30.8825 13.8274C31.2436 13.498 31.8937 13.0245 32.905 13.0245C34.7109 13.0245 36.4136 14.651 36.424 17.6363C36.424 20.8995 34.7419 22.3819 32.8947 22.3819C31.9866 22.3819 31.4397 22.001 31.0682 21.7334L31.0579 24.6466L28.478 25.1922V13.1892H30.7483L30.8825 13.8274ZM31.0684 19.6333C31.3161 19.9009 31.6773 20.1171 32.2861 20.1171C33.2355 20.1171 33.8753 19.0877 33.8753 17.7083C33.8753 16.3597 33.2252 15.3097 32.2861 15.3097C31.6979 15.3097 31.3264 15.5156 31.0581 15.8142L31.0684 19.6333Z" fill="#6461FC"/>
</svg>
