<svg width="51" height="35" viewBox="0 0 51 35" fill="none" xmlns="http://www.w3.org/2000/svg">
<rect x="0.364212" y="0.364212" width="50.2613" height="34.236" rx="4.00634" fill="white" stroke="#D9D9D9" stroke-width="0.728425"/>
<path fill-rule="evenodd" clip-rule="evenodd" d="M15.4802 23.6861H12.3912L10.0749 14.849C9.96492 14.4425 9.73148 14.0831 9.38809 13.9137C8.53112 13.4881 7.58681 13.1493 6.55664 12.9785V12.6383H11.5328C12.2195 12.6383 12.7346 13.1493 12.8205 13.7429L14.0223 20.1174L17.1098 12.6383H20.113L15.4802 23.6861ZM21.8306 23.6861H18.9133L21.3155 12.6383H24.2328L21.8306 23.6861ZM28.0062 15.6987C28.0921 15.1036 28.6072 14.7634 29.2081 14.7634C30.1524 14.678 31.1811 14.8488 32.0395 15.273L32.5546 12.8944C31.6961 12.5542 30.7518 12.3833 29.8949 12.3833C27.0634 12.3833 25.0031 13.9136 25.0031 16.0374C25.0031 17.6531 26.4625 18.5015 27.4927 19.0126C28.6072 19.5222 29.0364 19.8624 28.9505 20.372C28.9505 21.1364 28.0921 21.4766 27.2351 21.4766C26.2049 21.4766 25.1748 21.2218 24.232 20.7962L23.7169 23.1763C24.747 23.6005 25.8616 23.7713 26.8917 23.7713C30.0666 23.8553 32.0395 22.3265 32.0395 20.0318C32.0395 17.1421 28.0062 16.9727 28.0062 15.6987ZM42.2499 23.6861L39.9336 12.6383H37.4455C36.9304 12.6383 36.4153 12.9785 36.2436 13.4881L31.9543 23.6861H34.9574L35.5569 22.0718H39.2468L39.5902 23.6861H42.2499ZM37.8746 15.6131L38.7315 19.7768H36.3293L37.8746 15.6131Z" fill="#172B85"/>
</svg>
